<svg width="1533" height="448" viewBox="0 0 1533 448" fill="none" xmlns="http://www.w3.org/2000/svg">
<path d="M172.761 312L162 391C259.318 391 253.236 307 262.126 267.5H294.877C299.743 248.093 317.803 243.414 326.225 243.5C330.592 239.333 347.279 224.5 373.48 198.5C269.144 160.5 212.063 254.5 212.063 312H172.761Z" fill="#D9D9D9"/>
<path d="M426.818 193.5L382.37 267.5C423.169 267.5 437.424 218.167 439.451 193.5H426.818Z" fill="#D9D9D9"/>
<ellipse cx="330.436" cy="285" rx="24.3296" ry="26" fill="#D52A27"/>
<path d="M198.494 135L187.733 210.5C219.175 152.9 283.336 132.5 310.785 129.5H438.515C481.56 129.5 495.44 80.5 497 56H285.52C230.497 56 204.421 108.5 198.494 135Z" fill="#D9D9D9"/>
<path d="M418.864 176L331.371 260.5L352.426 286L418.864 176Z" fill="#D52A27"/>
<path d="M402.957 168.5C391.728 180 384.71 187.5 384.71 187.5C308.913 148.5 209.256 191 199.43 296.5H175.568C193.348 173 290.198 121 402.957 168.5Z" fill="#D52A27"/>
<path d="M1219.98 353L1248.72 181.561H1293.2L1289.63 203.316H1290.6C1292.87 199.095 1295.85 195.225 1299.53 191.708C1303.26 188.136 1307.65 185.295 1312.68 183.184C1317.77 181.02 1323.4 179.938 1329.56 179.938C1337.79 179.938 1345.23 182.129 1351.89 186.513C1358.54 190.896 1363.44 197.796 1366.58 207.212C1369.72 216.628 1370.04 228.858 1367.55 243.902C1365.17 258.297 1360.92 270.23 1354.81 279.7C1348.75 289.17 1341.61 296.232 1333.38 300.886C1325.21 305.54 1316.68 307.867 1307.81 307.867C1301.97 307.867 1296.91 306.92 1292.63 305.026C1288.36 303.078 1284.92 300.454 1282.32 297.152C1279.72 293.797 1277.94 290.009 1276.96 285.788H1275.99L1264.95 353H1219.98ZM1282.16 243.902C1281.18 249.963 1281.1 255.213 1281.92 259.65C1282.78 264.034 1284.49 267.443 1287.03 269.878C1289.63 272.259 1292.98 273.45 1297.09 273.45C1301.21 273.45 1304.89 272.286 1308.13 269.959C1311.38 267.578 1314.14 264.196 1316.41 259.812C1318.69 255.375 1320.36 250.072 1321.45 243.902C1322.42 237.733 1322.5 232.457 1321.69 228.074C1320.88 223.636 1319.23 220.254 1316.74 217.927C1314.25 215.546 1310.95 214.355 1306.84 214.355C1302.72 214.355 1298.96 215.546 1295.55 217.927C1292.2 220.254 1289.36 223.636 1287.03 228.074C1284.76 232.457 1283.13 237.733 1282.16 243.902Z" fill="white"/>
<path d="M1187.81 140H1232.95L1215.25 246.5C1213.19 259.163 1208.38 270.122 1200.8 279.375C1193.28 288.575 1183.7 295.691 1172.07 300.724C1160.43 305.703 1147.5 308.192 1133.27 308.192C1118.93 308.192 1106.8 305.703 1096.9 300.724C1087 295.691 1079.8 288.575 1075.31 279.375C1070.87 270.122 1069.68 259.163 1071.74 246.5L1089.43 140H1134.56L1117.52 242.604C1116.71 247.745 1117.11 252.317 1118.74 256.322C1120.36 260.327 1122.98 263.492 1126.61 265.819C1130.24 268.092 1134.62 269.229 1139.76 269.229C1144.95 269.229 1149.74 268.092 1154.13 265.819C1158.56 263.492 1162.24 260.327 1165.17 256.322C1168.09 252.317 1169.96 247.745 1170.77 242.604L1187.81 140Z" fill="white"/>
<path d="M1067.25 140L1039.65 306.244H994.844L1022.44 140H1067.25Z" fill="white"/>
<path d="M915.192 308.517C901.88 308.517 890.84 305.973 882.073 300.886C873.307 295.745 867.138 288.386 863.566 278.807C859.994 269.175 859.345 257.648 861.618 244.227C863.782 231.348 868.247 220.091 875.011 210.459C881.83 200.826 890.407 193.331 900.743 187.974C911.134 182.616 922.769 179.938 935.648 179.938C945.064 179.938 953.317 181.399 960.406 184.321C967.55 187.243 973.367 191.491 977.859 197.065C982.35 202.639 985.381 209.377 986.95 217.277C988.574 225.124 988.574 233.999 986.95 243.902L985.327 254.293H873.956L877.852 229.616H947.987C948.528 226.044 948.176 222.905 946.931 220.2C945.741 217.44 943.82 215.302 941.168 213.787C938.57 212.218 935.432 211.433 931.752 211.433C928.072 211.433 924.609 212.218 921.362 213.787C918.169 215.356 915.436 217.548 913.163 220.362C910.944 223.176 909.456 226.477 908.699 230.265L903.828 256.241C903.179 260.245 903.422 263.817 904.559 266.956C905.695 270.095 907.67 272.557 910.484 274.343C913.298 276.128 916.924 277.021 921.362 277.021C924.392 277.021 927.26 276.615 929.966 275.804C932.726 274.938 935.161 273.693 937.272 272.07C939.436 270.392 941.168 268.363 942.467 265.982H983.378C980.456 274.64 975.829 282.162 969.498 288.548C963.22 294.88 955.482 299.804 946.282 303.322C937.136 306.785 926.773 308.517 915.192 308.517Z" fill="white"/>
<path d="M797.267 251.695L808.956 181.561H853.764L832.984 306.244H790.449L794.345 282.541H793.046C789.204 290.496 783.468 296.72 775.837 301.211C768.261 305.649 759.819 307.867 750.511 307.867C741.799 307.867 734.52 305.865 728.676 301.861C722.831 297.856 718.691 292.336 716.256 285.301C713.821 278.266 713.334 270.203 714.795 261.111L728.107 181.561H772.915L761.226 251.695C760.306 257.864 761.091 262.708 763.58 266.225C766.124 269.743 770.209 271.502 775.837 271.502C779.571 271.502 782.927 270.717 785.903 269.147C788.934 267.524 791.423 265.251 793.371 262.329C795.373 259.353 796.672 255.808 797.267 251.695Z" fill="white"/>
<path d="M581 306.244L608.599 140H725.489L719.32 176.366H647.562L643.017 204.939H707.631L701.462 241.305H636.848L626.133 306.244H581Z" fill="white"/>
<path d="M1313.01 130.193L1371.83 164.531C1371.83 164.531 1346.23 153.268 1311.7 151.108C1277.16 148.947 1250.36 156.932 1250.36 156.932L1313.01 130.193Z" fill="#D52A27"/>
</svg>
