<svg width="660" height="660" viewBox="0 0 660 660" fill="none" xmlns="http://www.w3.org/2000/svg">
<path d="M172.761 418L162 497C259.318 497 253.236 413 262.126 373.5H294.877C299.743 354.093 317.803 349.414 326.225 349.5C330.592 345.333 347.279 330.5 373.48 304.5C269.144 266.5 212.063 360.5 212.063 418H172.761Z" fill="#D9D9D9"/>
<path d="M426.818 299.5L382.37 373.5C423.169 373.5 437.424 324.167 439.451 299.5H426.818Z" fill="#D9D9D9"/>
<ellipse cx="330.436" cy="391" rx="24.3296" ry="26" fill="#D52A27"/>
<path d="M198.494 241L187.733 316.5C219.175 258.9 283.336 238.5 310.785 235.5H438.515C481.56 235.5 495.44 186.5 497 162H285.52C230.497 162 204.421 214.5 198.494 241Z" fill="#D9D9D9"/>
<path d="M418.865 282L331.372 366.5L352.426 392L418.865 282Z" fill="#D52A27"/>
<path d="M402.957 274.5C391.728 286 384.709 293.5 384.709 293.5C308.913 254.5 209.256 297 199.43 402.5H175.568C193.348 279 290.198 227 402.957 274.5Z" fill="#D52A27"/>
</svg>
